<svg width="24" height="24" viewBox="0 0 24 24" fill="none" xmlns="http://www.w3.org/2000/svg">
<circle cx="12" cy="12" r="12" fill="url(#paint0_linear_106_51)"/>
<path d="M12 0C18.6274 0 24 5.37258 24 12C24 18.6274 18.6274 24 12 24C5.37258 24 0 18.6274 0 12C0 5.37258 5.37258 0 12 0ZM16.9434 5.57129C16.1416 5.57157 14.5383 6.91113 14.0039 6.91113C13.3627 6.91111 13.2391 6.77735 12 6.77734C10.761 6.77734 10.6371 6.91107 9.99609 6.91113C9.46163 6.91113 7.85736 5.57129 7.05566 5.57129C6.25408 5.57144 5.3194 6.05376 5.31934 7.44629V9.05371C5.32098 9.47573 5.47072 10.7684 6.05664 10.4229C5.36385 11.2611 5.29322 12.2393 5.30273 13.1855C5.11629 13.2407 4.92582 13.3026 4.74121 13.3672C4.16871 13.5677 3.56139 13.8235 3.28711 14.0049C2.99603 14.1976 2.91251 14.5954 3.10059 14.8936C3.28875 15.1917 3.67751 15.2775 3.96875 15.085C4.09952 14.9985 4.57235 14.7853 5.14746 14.584C5.21094 14.5617 5.27462 14.5395 5.33789 14.5186C5.37662 14.8903 5.47334 15.2298 5.61621 15.5391L5.59668 15.5498C5.25393 15.7352 4.93538 15.9481 4.73242 16.084C4.69735 16.1074 4.6654 16.1291 4.6377 16.1475C4.34639 16.3401 4.26304 16.7379 4.45117 17.0361C4.63927 17.3342 5.02713 17.4198 5.31836 17.2275C5.35278 17.2047 5.38999 17.1802 5.42871 17.1543C5.63404 17.0171 5.89641 16.8414 6.18262 16.6865C6.24975 16.6502 6.31515 16.6175 6.37695 16.5879C7.8256 17.9783 10.426 18.4287 12 18.4287C13.574 18.4287 16.1745 17.9784 17.623 16.5879C17.6848 16.6175 17.7494 16.6502 17.8164 16.6865C18.1027 16.8414 18.3659 17.0171 18.5713 17.1543C18.6099 17.1801 18.6463 17.2048 18.6807 17.2275C18.972 17.4201 19.3606 17.3344 19.5488 17.0361C19.7369 16.738 19.6535 16.3401 19.3623 16.1475C19.3346 16.1291 19.3027 16.1075 19.2676 16.084C19.0646 15.9481 18.7462 15.7353 18.4033 15.5498L18.3838 15.5391C18.5266 15.2298 18.6224 14.8904 18.6611 14.5186C18.7246 14.5396 18.7889 14.5617 18.8525 14.584C19.4277 14.7853 19.9005 14.9985 20.0312 15.085C20.3225 15.2775 20.7113 15.1917 20.8994 14.8936C21.0875 14.5954 21.0039 14.1975 20.7129 14.0049C20.4386 13.8235 19.8313 13.5677 19.2588 13.3672C19.0739 13.3025 18.883 13.2399 18.6963 13.1846C18.7057 12.2384 18.636 11.261 17.9434 10.4229C18.5293 10.7684 18.679 9.47573 18.6807 9.05371V7.44629C18.6806 6.05361 17.7451 5.57129 16.9434 5.57129ZM12 14.5713C12.1957 14.5713 12.3958 14.5981 12.5654 14.6572C12.6485 14.6862 12.7503 14.7319 12.8398 14.8057C12.9298 14.8798 13.0457 15.0175 13.0459 15.2139C13.0459 15.4104 12.9298 15.5479 12.8398 15.6221C12.7503 15.696 12.6486 15.7425 12.5654 15.7715C12.3958 15.8306 12.1957 15.8574 12 15.8574C11.8043 15.8574 11.6041 15.8305 11.4346 15.7715C11.3514 15.7425 11.2488 15.696 11.1592 15.6221C11.0692 15.5478 10.9531 15.4102 10.9531 15.2139C10.9533 15.0175 11.0692 14.8798 11.1592 14.8057C11.2488 14.7318 11.3514 14.6862 11.4346 14.6572C11.6041 14.5982 11.8043 14.5713 12 14.5713ZM9.50488 11.5713C9.84314 11.5713 10.0694 11.8043 10.1836 12C10.3027 12.2041 10.3594 12.452 10.3594 12.6963C10.3594 12.9406 10.3027 13.1884 10.1836 13.3926C10.0694 13.5883 9.8432 13.8213 9.50488 13.8213C9.16676 13.8212 8.94138 13.5883 8.82715 13.3926C8.70802 13.1884 8.65137 12.9407 8.65137 12.6963C8.65139 12.452 8.70804 12.2041 8.82715 12C8.94141 11.8043 9.16688 11.5714 9.50488 11.5713ZM14.4951 11.5713C14.833 11.5715 15.0587 11.8044 15.1729 12C15.292 12.2041 15.3486 12.452 15.3486 12.6963C15.3486 12.9407 15.292 13.1884 15.1729 13.3926C15.0587 13.5883 14.8331 13.8211 14.4951 13.8213C14.1568 13.8213 13.9307 13.5883 13.8164 13.3926C13.6973 13.1884 13.6406 12.9407 13.6406 12.6963C13.6406 12.452 13.6973 12.2041 13.8164 12C13.9307 11.8043 14.157 11.5713 14.4951 11.5713Z" fill="#23262D"/>
<defs>
<linearGradient id="paint0_linear_106_51" x1="4.46756" y1="2.16438" x2="24.5971" y2="11.1314" gradientUnits="userSpaceOnUse">
<stop stop-color="#E0E0E0"/>
<stop offset="1" stop-color="#7A7A7A"/>
</linearGradient>
</defs>
</svg>
