<svg width="85" height="36" viewBox="0 0 85 36" fill="none" xmlns="http://www.w3.org/2000/svg">
<path d="M3.69519 12.2224V22.5759H11.9206L14.1639 14.1767H9.96809L7.89097 21.9522V12.2224H14.1639V8.02285H7.89097V0.538452H3.69519V8.02285H0.537964V12.2224H3.69519Z" fill="url(#paint0_linear_47_8)"/>
<path d="M41.3297 5.94385H37.217L32.8966 22.1601V5.94385H24.7127L20.3923 22.1601V5.94385H16.2381V22.5759H24.4219L28.7423 6.35965V22.5759H36.9262L41.3297 5.94385Z" fill="url(#paint1_linear_47_8)"/>
<path d="M50.2989 18.4594C49.5235 18.4594 48.8311 18.2654 48.2218 17.8773C47.6125 17.4615 47.1556 16.9348 46.8509 16.2973H58.7321C58.8151 15.9646 58.8844 15.632 58.9398 15.2994C58.9952 14.9667 59.0229 14.6202 59.0229 14.2599C59.0229 13.0956 58.8013 12.0145 58.3582 11.0166C57.9151 9.99097 57.3196 9.10393 56.5719 8.35549C55.8241 7.60705 54.9379 7.01107 53.9131 6.56755C52.9161 6.12403 51.836 5.90227 50.6728 5.90227C49.5373 5.90227 48.4572 6.12403 47.4325 6.56755C46.4355 7.01107 45.5631 7.60705 44.8153 8.35549C44.0676 9.10393 43.4721 9.99097 43.029 11.0166C42.5859 12.0145 42.3643 13.0956 42.3643 14.2599C42.3643 15.3964 42.5859 16.4775 43.029 17.5031C43.4721 18.501 44.0676 19.3742 44.8153 20.1226C45.5631 20.8711 46.4355 21.4671 47.4325 21.9106C48.4572 22.3541 49.5373 22.5759 50.6728 22.5759C51.6422 22.5759 52.5422 22.4373 53.3731 22.1601C54.2316 21.8551 55.0071 21.4255 55.6995 20.8711L52.6253 17.7942C51.8776 18.2377 51.1021 18.4594 50.2989 18.4594ZM51.0467 10.0187C51.8499 10.0187 52.5561 10.2266 53.1654 10.6424C53.7747 11.0305 54.2316 11.5433 54.5363 12.1809H47.1833C47.5987 11.5433 48.1387 11.0305 48.8034 10.6424C49.4958 10.2266 50.2436 10.0187 51.0467 10.0187Z" fill="url(#paint2_linear_47_8)"/>
<path d="M67.7507 5.94385H63.6795L57.7805 27.9813H61.9347L64.0534 19.9563C64.8288 20.7602 65.7289 21.3978 66.7536 21.869C67.806 22.3402 68.9554 22.5759 70.2017 22.5759C71.3648 22.5759 72.4588 22.3541 73.4835 21.9106C74.5082 21.4671 75.3945 20.8711 76.1422 20.1226C76.89 19.3742 77.4854 18.501 77.9285 17.5031C78.3717 16.4775 78.5932 15.3825 78.5932 14.2183C78.5932 13.0818 78.3717 12.0145 77.9285 11.0166C77.4854 9.99097 76.89 9.10393 76.1422 8.35549C75.3945 7.60705 74.5082 7.01107 73.4835 6.56755C72.4588 6.12403 71.3648 5.90227 70.2017 5.90227C69.3154 5.90227 68.4707 6.02701 67.6676 6.27649L67.7507 5.94385ZM65.8812 14.5925C65.8812 13.9549 66.0059 13.359 66.2551 12.8046C66.5044 12.2502 66.8367 11.7651 67.2521 11.3493C67.6953 10.9335 68.1938 10.6147 68.7477 10.3929C69.3293 10.1434 69.9386 10.0187 70.5755 10.0187C71.1294 10.0187 71.6418 10.1157 72.1126 10.3098C72.5834 10.5038 72.9988 10.781 73.3589 11.1414C73.7189 11.474 73.9959 11.8759 74.1897 12.3472C74.3836 12.8184 74.4805 13.3174 74.4805 13.8441C74.4805 14.4539 74.3559 15.0499 74.1066 15.632C73.8574 16.1864 73.5112 16.6715 73.0681 17.0873C72.6527 17.5031 72.1541 17.8357 71.5726 18.0852C71.0187 18.3347 70.4371 18.4594 69.8278 18.4594C68.6923 18.4594 67.7507 18.0852 67.0029 17.3368C66.2551 16.5883 65.8812 15.6736 65.8812 14.5925Z" fill="url(#paint3_linear_47_8)"/>
<path d="M84.857 22.5759V18.3763H80.6613V22.5759H84.857Z" fill="url(#paint4_linear_47_8)"/>
<defs>
<linearGradient id="paint0_linear_47_8" x1="16.2338" y1="3.01332" x2="45.7305" y2="43.3857" gradientUnits="userSpaceOnUse">
<stop stop-color="#E0E0E0"/>
<stop offset="1" stop-color="#7A7A7A"/>
</linearGradient>
<linearGradient id="paint1_linear_47_8" x1="16.2338" y1="3.01332" x2="45.7305" y2="43.3857" gradientUnits="userSpaceOnUse">
<stop stop-color="#E0E0E0"/>
<stop offset="1" stop-color="#7A7A7A"/>
</linearGradient>
<linearGradient id="paint2_linear_47_8" x1="16.2338" y1="3.01332" x2="45.7305" y2="43.3857" gradientUnits="userSpaceOnUse">
<stop stop-color="#E0E0E0"/>
<stop offset="1" stop-color="#7A7A7A"/>
</linearGradient>
<linearGradient id="paint3_linear_47_8" x1="16.2338" y1="3.01332" x2="45.7305" y2="43.3857" gradientUnits="userSpaceOnUse">
<stop stop-color="#E0E0E0"/>
<stop offset="1" stop-color="#7A7A7A"/>
</linearGradient>
<linearGradient id="paint4_linear_47_8" x1="16.2338" y1="3.01332" x2="45.7305" y2="43.3857" gradientUnits="userSpaceOnUse">
<stop stop-color="#E0E0E0"/>
<stop offset="1" stop-color="#7A7A7A"/>
</linearGradient>
</defs>
</svg>
