<svg width="85" height="36" viewBox="0 0 85 36" fill="none" xmlns="http://www.w3.org/2000/svg">
<path d="M3.69519 12.2224V22.5759H11.9206L14.1639 14.1767H9.96809L7.89097 21.9522V12.2224H14.1639V8.02285H7.89097V0.538452H3.69519V8.02285H0.537964V12.2224H3.69519Z" fill="#23262D"/>
<path d="M41.3297 5.94385H37.217L32.8966 22.1601V5.94385H24.7127L20.3923 22.1601V5.94385H16.2381V22.5759H24.4219L28.7423 6.35965V22.5759H36.9262L41.3297 5.94385Z" fill="#23262D"/>
<path d="M50.299 18.4594C49.5235 18.4594 48.8311 18.2654 48.2218 17.8773C47.6125 17.4615 47.1556 16.9348 46.8509 16.2973H58.7321C58.8151 15.9646 58.8844 15.632 58.9398 15.2994C58.9952 14.9667 59.0229 14.6202 59.0229 14.2599C59.0229 13.0956 58.8013 12.0145 58.3582 11.0166C57.9151 9.99097 57.3196 9.10393 56.5718 8.35549C55.8241 7.60705 54.9379 7.01107 53.9131 6.56755C52.9161 6.12403 51.836 5.90227 50.6728 5.90227C49.5373 5.90227 48.4572 6.12403 47.4325 6.56755C46.4355 7.01107 45.5631 7.60705 44.8153 8.35549C44.0676 9.10393 43.4721 9.99097 43.029 11.0166C42.5859 12.0145 42.3643 13.0956 42.3643 14.2599C42.3643 15.3964 42.5859 16.4775 43.029 17.5031C43.4721 18.501 44.0676 19.3742 44.8153 20.1226C45.5631 20.8711 46.4355 21.4671 47.4325 21.9106C48.4572 22.3541 49.5373 22.5759 50.6728 22.5759C51.6422 22.5759 52.5422 22.4373 53.3731 22.1601C54.2316 21.8551 55.0071 21.4255 55.6995 20.8711L52.6253 17.7942C51.8776 18.2377 51.1021 18.4594 50.299 18.4594ZM51.0467 10.0187C51.8499 10.0187 52.5561 10.2266 53.1654 10.6424C53.7747 11.0305 54.2316 11.5433 54.5363 12.1809H47.1833C47.5987 11.5433 48.1387 11.0305 48.8034 10.6424C49.4958 10.2266 50.2436 10.0187 51.0467 10.0187Z" fill="#23262D"/>
<path d="M67.7506 5.94385H63.6795L57.7805 27.9813H61.9347L64.0534 19.9563C64.8288 20.7602 65.7289 21.3978 66.7536 21.869C67.806 22.3402 68.9554 22.5759 70.2017 22.5759C71.3648 22.5759 72.4588 22.3541 73.4835 21.9106C74.5082 21.4671 75.3945 20.8711 76.1422 20.1226C76.89 19.3742 77.4854 18.501 77.9285 17.5031C78.3717 16.4775 78.5932 15.3825 78.5932 14.2183C78.5932 13.0818 78.3717 12.0145 77.9285 11.0166C77.4854 9.99097 76.89 9.10393 76.1422 8.35549C75.3945 7.60705 74.5082 7.01107 73.4835 6.56755C72.4588 6.12403 71.3648 5.90227 70.2017 5.90227C69.3154 5.90227 68.4707 6.02701 67.6676 6.27649L67.7506 5.94385ZM65.8812 14.5925C65.8812 13.9549 66.0059 13.359 66.2551 12.8046C66.5044 12.2502 66.8367 11.7651 67.2521 11.3493C67.6953 10.9335 68.1938 10.6147 68.7477 10.3929C69.3293 10.1434 69.9386 10.0187 70.5755 10.0187C71.1294 10.0187 71.6418 10.1157 72.1126 10.3098C72.5834 10.5038 72.9988 10.781 73.3589 11.1414C73.7189 11.474 73.9959 11.8759 74.1897 12.3472C74.3836 12.8184 74.4805 13.3174 74.4805 13.8441C74.4805 14.4539 74.3559 15.0499 74.1066 15.632C73.8574 16.1864 73.5112 16.6715 73.0681 17.0873C72.6527 17.5031 72.1541 17.8357 71.5726 18.0852C71.0187 18.3347 70.4371 18.4594 69.8278 18.4594C68.6923 18.4594 67.7506 18.0852 67.0029 17.3368C66.2551 16.5883 65.8812 15.6736 65.8812 14.5925Z" fill="#23262D"/>
<path d="M84.857 22.5759V18.3763H80.6612V22.5759H84.857Z" fill="#23262D"/>
<g opacity="0.6">
<path d="M6.50098 27.4678C5.75879 27.4678 5.21842 27.6631 4.87988 28.0537C4.54134 28.4476 4.37207 28.9033 4.37207 29.4209H4.41113C4.45671 29.3232 4.53646 29.2109 4.65039 29.084C4.75456 28.9701 4.87337 28.8724 5.00684 28.791C5.15983 28.6999 5.36003 28.6217 5.60742 28.5566C5.85482 28.4915 6.11849 28.459 6.39844 28.459C7.14388 28.459 7.74447 28.6722 8.2002 29.0986C8.65267 29.5218 8.87891 30.0785 8.87891 30.7686C8.87891 31.4554 8.63965 32.0153 8.16113 32.4482C7.67936 32.8812 7.04622 33.0977 6.26172 33.0977C5.44792 33.0977 4.79362 32.821 4.29883 32.2676C3.80078 31.7142 3.55176 30.9785 3.55176 30.0605V29.709C3.55176 28.7715 3.78776 28.0309 4.25977 27.4873C4.73503 26.9437 5.42839 26.6719 6.33984 26.6719C6.75 26.6719 7.0446 26.6198 7.22363 26.5156C7.40267 26.4115 7.49219 26.2389 7.49219 25.998H8.39062C8.39062 26.4017 8.27995 26.7337 8.05859 26.9941C7.78841 27.3099 7.26921 27.4678 6.50098 27.4678ZM7.5166 31.8721C7.83887 31.5824 8 31.2145 8 30.7686C8 30.3226 7.83887 29.9596 7.5166 29.6797C7.18783 29.3997 6.76302 29.2598 6.24219 29.2598C5.76693 29.2598 5.36491 29.4062 5.03613 29.6992C4.71061 29.9922 4.54785 30.3486 4.54785 30.7686C4.54785 31.195 4.71061 31.5563 5.03613 31.8525C5.36165 32.152 5.76367 32.3018 6.24219 32.3018C6.77279 32.3018 7.19759 32.1585 7.5166 31.8721ZM15.3535 30.5488L15.3242 30.959H10.8955C10.8955 31.2389 11.0615 31.5319 11.3936 31.8379C11.7223 32.1471 12.1634 32.3018 12.7168 32.3018C13.1237 32.3018 13.4574 32.2253 13.7178 32.0723C13.9326 31.9421 14.0824 31.8249 14.167 31.7207L14.2061 31.6523H15.2168C15.1973 31.7012 15.1761 31.7516 15.1533 31.8037C15.111 31.8786 15.0312 31.9941 14.9141 32.1504C14.7871 32.3164 14.639 32.4645 14.4697 32.5947C14.307 32.7217 14.0677 32.8372 13.752 32.9414C13.4525 33.0456 13.1074 33.0977 12.7168 33.0977C11.9062 33.0977 11.2487 32.8665 10.7441 32.4043C10.2331 31.9421 9.97754 31.3236 9.97754 30.5488C9.97754 29.7806 10.2314 29.1637 10.7393 28.6982C11.2438 28.2327 11.8867 28 12.668 28C13.4427 28 14.0856 28.2327 14.5967 28.6982C15.1012 29.1637 15.3535 29.7806 15.3535 30.5488ZM13.9668 29.2646C13.6413 28.9554 13.2083 28.8008 12.668 28.8008C12.1211 28.8008 11.6882 28.9554 11.3691 29.2646C11.0469 29.5739 10.8857 29.8783 10.8857 30.1777H14.4453C14.4453 29.8783 14.2858 29.5739 13.9668 29.2646ZM17.834 28.8789H15.8564V28.0977H20.6758V28.8789H18.6934V33.0098L17.834 33V28.8789ZM21.0713 31.6279C21.0713 31.1266 21.2845 30.7555 21.7109 30.5146C22.1341 30.277 22.6777 30.1582 23.3418 30.1582C23.6803 30.1582 23.9928 30.1989 24.2793 30.2803C24.5788 30.3649 24.7887 30.4447 24.9092 30.5195L25.0996 30.6416V29.8701C25.0996 29.5381 24.9775 29.2777 24.7334 29.0889C24.4893 28.8968 24.1214 28.8008 23.6299 28.8008C22.6501 28.8008 22.1602 29.0677 22.1602 29.6016H21.3008C21.304 29.0612 21.5238 28.6592 21.96 28.3955C22.3929 28.1318 22.9495 28 23.6299 28C24.3135 28 24.8717 28.1595 25.3047 28.4785C25.7376 28.8008 25.9557 29.2646 25.959 29.8701V31.6523C25.959 31.8997 25.9915 32.0723 26.0566 32.1699C26.1217 32.2643 26.2292 32.3115 26.3789 32.3115C26.5091 32.3115 26.5954 32.2936 26.6377 32.2578L26.6572 32.248V33.0195C26.5563 33.0716 26.4098 33.0977 26.2178 33.0977C25.8923 33.0977 25.6514 33.0277 25.4951 32.8877C25.3714 32.7835 25.2803 32.6745 25.2217 32.5605L25.1973 32.502H25.1582C25.0768 32.5833 24.9938 32.6517 24.9092 32.707C24.8083 32.7754 24.6976 32.8356 24.5771 32.8877C24.2581 33.0277 23.8691 33.0977 23.4102 33.0977C22.7168 33.0977 22.1536 32.9788 21.7207 32.7412C21.2878 32.5068 21.0713 32.1357 21.0713 31.6279ZM23.5371 30.959C22.4792 30.959 21.9502 31.182 21.9502 31.6279C21.9502 32.0771 22.4792 32.3018 23.5371 32.3018C23.8496 32.3018 24.1344 32.2676 24.3916 32.1992C24.6455 32.1374 24.8197 32.0788 24.9141 32.0234C25.002 31.9779 25.0638 31.9372 25.0996 31.9014V31.3398C25.0638 31.304 25.002 31.2633 24.9141 31.2178C24.8034 31.1657 24.6309 31.1104 24.3965 31.0518C24.1458 30.9899 23.8594 30.959 23.5371 30.959Z" fill="#23262D"/>
<path d="M33.9961 32.2695C33.5404 32.8086 32.9154 33.0781 32.1211 33.0781C31.3268 33.0781 30.7018 32.8086 30.2461 32.2695C29.7878 31.7331 29.5586 31.043 29.5586 30.1992C29.5586 29.3607 29.7878 28.6706 30.2461 28.1289C30.7018 27.5898 31.3268 27.3203 32.1211 27.3203C32.9154 27.3203 33.5404 27.5898 33.9961 28.1289C34.4518 28.6654 34.6797 29.3555 34.6797 30.1992C34.6797 31.0456 34.4518 31.7357 33.9961 32.2695ZM33.8945 30.1992C33.8945 29.556 33.7409 29.0299 33.4336 28.6211C33.1263 28.2122 32.6888 28.0078 32.1211 28.0078C31.5534 28.0078 31.1159 28.2122 30.8086 28.6211C30.4987 29.0326 30.3438 29.5586 30.3438 30.1992C30.3438 30.8372 30.4987 31.362 30.8086 31.7734C31.1185 32.1849 31.556 32.3906 32.1211 32.3906C32.6862 32.3906 33.1237 32.1849 33.4336 31.7734C33.7409 31.3646 33.8945 30.8398 33.8945 30.1992ZM35.4378 32.9688C35.3597 32.8984 35.3206 32.7969 35.3206 32.6641C35.3206 32.5339 35.3597 32.431 35.4378 32.3555C35.5133 32.2826 35.6214 32.2461 35.762 32.2461C35.9027 32.2461 36.0107 32.2826 36.0862 32.3555C36.1644 32.431 36.2034 32.5339 36.2034 32.6641C36.2034 32.7969 36.1644 32.8984 36.0862 32.9688C36.0107 33.0417 35.9027 33.0781 35.762 33.0781C35.6214 33.0781 35.5133 33.0417 35.4378 32.9688ZM41.278 32.2695C40.8222 32.8086 40.1972 33.0781 39.403 33.0781C38.6087 33.0781 37.9837 32.8086 37.528 32.2695C37.0696 31.7331 36.8405 31.043 36.8405 30.1992C36.8405 29.3607 37.0696 28.6706 37.528 28.1289C37.9837 27.5898 38.6087 27.3203 39.403 27.3203C40.1972 27.3203 40.8222 27.5898 41.278 28.1289C41.7337 28.6654 41.9616 29.3555 41.9616 30.1992C41.9616 31.0456 41.7337 31.7357 41.278 32.2695ZM41.1764 30.1992C41.1764 29.556 41.0228 29.0299 40.7155 28.6211C40.4082 28.2122 39.9707 28.0078 39.403 28.0078C38.8353 28.0078 38.3978 28.2122 38.0905 28.6211C37.7806 29.0326 37.6256 29.5586 37.6256 30.1992C37.6256 30.8372 37.7806 31.362 38.0905 31.7734C38.4004 32.1849 38.8379 32.3906 39.403 32.3906C39.9681 32.3906 40.4056 32.1849 40.7155 31.7734C41.0228 31.3646 41.1764 30.8398 41.1764 30.1992ZM42.7197 32.9688C42.6416 32.8984 42.6025 32.7969 42.6025 32.6641C42.6025 32.5339 42.6416 32.431 42.7197 32.3555C42.7952 32.2826 42.9033 32.2461 43.0439 32.2461C43.1845 32.2461 43.2926 32.2826 43.3681 32.3555C43.4462 32.431 43.4853 32.5339 43.4853 32.6641C43.4853 32.7969 43.4462 32.8984 43.3681 32.9688C43.2926 33.0417 43.1845 33.0781 43.0439 33.0781C42.9033 33.0781 42.7952 33.0417 42.7197 32.9688ZM47.8997 33H47.1497V31.6641H43.802V30.9922L46.8919 27.3984H47.8997V30.9922H48.6692V31.6641H47.8997V33ZM44.6692 30.9688V30.9922H47.1497V28.1055H47.1223L44.6692 30.9688Z" fill="#23262D"/>
</g>
</svg>
